<svg xmlns="http://www.w3.org/2000/svg" width="24" height="24" viewBox="0 0 24 24"><defs><style>.a{fill:red;opacity:0;}.b,.d{fill:#fff;}.b,.c{stroke:#6186fe;stroke-width:2px;}.c,.f{fill:#6186fe;}.e{fill:#f6a35e;}.g{stroke:none;}.h{fill:none;}</style></defs><g transform="translate(-278 -355)"><g transform="translate(-26 2)"><rect class="a" width="20" height="20" transform="translate(306 355)"/><rect class="a" width="24" height="24" transform="translate(304 353)"/><g class="b" transform="translate(325 373) rotate(180)"><path class="g" d="M2,0H8a2,2,0,0,1,2,2V5a0,0,0,0,1,0,0H0A0,0,0,0,1,0,5V2A2,2,0,0,1,2,0Z"/><rect class="h" x="1" y="1" width="8" height="3" rx="1"/></g><g class="c" transform="translate(315 359)"><path class="g" d="M2,0H8a2,2,0,0,1,2,2v9a0,0,0,0,1,0,0H0a0,0,0,0,1,0,0V2A2,2,0,0,1,2,0Z"/><rect class="h" x="1" y="1" width="8" height="9" rx="1"/></g><path class="d" d="M3,0H3A3,3,0,0,1,6,3V7A0,0,0,0,1,6,7H0A0,0,0,0,1,0,7V3A3,3,0,0,1,3,0Z" transform="translate(323 368) rotate(180)"/><g transform="translate(-45 38)"><rect class="e" width="6" height="9" rx="1" transform="translate(351 318)"/><rect class="e" width="2" height="10" transform="translate(353 327)"/></g><rect class="d" width="2" height="5" transform="translate(308 358)"/><rect class="d" width="2" height="1" transform="translate(308 362)"/><rect class="e" width="4" height="1" rx="0.5" transform="translate(307 374)"/><rect class="f" width="2" height="1" transform="translate(319 370)"/><rect class="f" width="2" height="3" rx="1" transform="translate(316 372)"/><rect class="f" width="2" height="5" rx="1" transform="translate(314 362)"/><rect class="f" width="2" height="5" rx="1" transform="translate(324 362)"/><rect class="f" width="2" height="3" rx="1" transform="translate(322 372)"/></g></g></svg>